<svg id="visual" viewBox="0 0 1920 860" width="1920" height="860" xmlns="http://www.w3.org/2000/svg" xmlns:xlink="http://www.w3.org/1999/xlink" version="1.1"><rect x="0" y="0" width="1920" height="860" fill="#002233"></rect><path d="M0 603L40 615.5C80 628 160 653 240 666.8C320 680.7 400 683.3 480 676.7C560 670 640 654 720 642.2C800 630.3 880 622.7 960 619.2C1040 615.7 1120 616.3 1200 614.2C1280 612 1360 607 1440 612.8C1520 618.7 1600 635.3 1680 643.3C1760 651.3 1840 650.7 1880 650.3L1920 650L1920 861L1880 861C1840 861 1760 861 1680 861C1600 861 1520 861 1440 861C1360 861 1280 861 1200 861C1120 861 1040 861 960 861C880 861 800 861 720 861C640 861 560 861 480 861C400 861 320 861 240 861C160 861 80 861 40 861L0 861Z" fill="#0066FF" stroke-linecap="round" stroke-linejoin="miter"></path></svg>