<svg width="800" height="600" viewBox="0 0 800 600" fill="none" xmlns="http://www.w3.org/2000/svg">
<g clip-path="url(#clip0_2_227)">
<path fill-rule="evenodd" clip-rule="evenodd" d="M0 600H800V0H0V600Z" fill="#F0F0F0"/>
<path fill-rule="evenodd" clip-rule="evenodd" d="M433.028 381.414C425.63 377.143 416.498 377.152 409.072 381.439C383.167 396.395 321.589 431.948 287.353 451.714C282.403 454.572 279.342 459.848 279.324 465.553C279.306 471.259 282.333 476.528 287.265 479.376C333.894 506.297 359.355 520.997 394.123 541.07C401.521 545.342 410.653 545.332 418.079 541.045C443.984 526.089 505.562 490.537 539.798 470.77C544.748 467.912 547.809 462.637 547.827 456.931C547.845 451.225 544.818 445.956 539.885 443.108C493.257 416.187 467.796 401.487 433.028 381.414Z" fill="#262626" fill-opacity="0.3"/>
<path fill-rule="evenodd" clip-rule="evenodd" d="M143.628 437.382C172.605 420.652 219.656 420.652 248.633 437.382C277.61 454.112 277.61 481.277 248.633 498.007C219.656 514.736 172.605 514.736 143.628 498.007C114.651 481.277 114.651 454.112 143.628 437.382Z" fill="#262626" fill-opacity="0.3"/>
<path fill-rule="evenodd" clip-rule="evenodd" d="M446.028 363.414C438.63 359.143 429.498 359.152 422.072 363.439C396.167 378.395 334.589 413.948 300.353 433.714C295.403 436.572 292.342 441.848 292.324 447.553C292.306 453.259 295.333 458.528 300.265 461.376C346.894 488.297 372.355 502.997 407.123 523.07C414.521 527.342 423.653 527.332 431.079 523.045C456.984 508.089 518.562 472.537 552.798 452.77C557.748 449.912 560.809 444.637 560.827 438.931C560.845 433.225 557.818 427.956 552.885 425.108C506.257 398.187 480.796 383.487 446.028 363.414Z" fill="white"/>
<path fill-rule="evenodd" clip-rule="evenodd" d="M446.028 363.414C438.63 359.143 429.498 359.152 422.072 363.439C396.167 378.395 334.589 413.948 300.353 433.714C295.403 436.572 292.342 441.848 292.324 447.553C292.306 453.259 295.333 458.528 300.265 461.376C346.894 488.297 372.355 502.997 407.123 523.07C414.521 527.342 423.653 527.332 431.079 523.045C456.984 508.089 518.562 472.537 552.798 452.77C557.748 449.912 560.809 444.637 560.827 438.931C560.845 433.225 557.818 427.956 552.885 425.108C506.257 398.187 480.796 383.487 446.028 363.414Z" stroke="#262725" stroke-width="2" stroke-linecap="round" stroke-linejoin="round"/>
<path fill-rule="evenodd" clip-rule="evenodd" d="M350.568 435.15L329.727 447.183L350.568 459.216H360.568L371.409 447.183L350.568 435.15Z" fill="#262626" fill-opacity="0.3"/>
<path fill-rule="evenodd" clip-rule="evenodd" d="M377.104 453.358L356.263 465.39L377.104 477.423H392.104L402.945 465.39L377.104 453.358Z" fill="#262626" fill-opacity="0.3"/>
<path fill-rule="evenodd" clip-rule="evenodd" d="M410.727 472.77L389.886 484.803L410.727 496.835H425.727L436.568 484.803L410.727 472.77Z" fill="#262626" fill-opacity="0.3"/>
<path fill-rule="evenodd" clip-rule="evenodd" d="M560.248 438.914V439.191C560.149 444.996 557.014 450.336 551.974 453.246C504.998 480.368 466.563 502.558 431.491 522.807C423.81 527.241 414.347 527.241 406.667 522.807C371.595 502.558 347.631 488.723 300.655 461.601C295.535 458.645 292.38 453.181 292.38 447.269C292.38 447.269 292.38 457.304 292.38 463.216C292.38 469.129 295.535 474.592 300.655 477.549C347.631 504.67 371.595 518.506 406.667 538.754C414.347 543.189 423.81 543.189 431.491 538.754C466.563 518.506 504.998 496.315 551.974 469.194C557.094 466.238 560.248 460.774 560.248 454.862V438.914Z" fill="#262725"/>
<path fill-rule="evenodd" clip-rule="evenodd" d="M560.248 438.914V439.191C560.149 444.996 557.014 450.336 551.974 453.246C504.998 480.368 466.563 502.558 431.491 522.807C423.81 527.241 414.347 527.241 406.667 522.807C371.595 502.558 347.631 488.723 300.655 461.601C295.535 458.645 292.38 453.181 292.38 447.269C292.38 447.269 292.38 457.304 292.38 463.216C292.38 469.129 295.535 474.592 300.655 477.549C347.631 504.67 371.595 518.506 406.667 538.754C414.347 543.189 423.81 543.189 431.491 538.754C466.563 518.506 504.998 496.315 551.974 469.194C557.094 466.238 560.248 460.774 560.248 454.862V438.914Z" stroke="#262725" stroke-width="2" stroke-linecap="round" stroke-linejoin="round"/>
<path fill-rule="evenodd" clip-rule="evenodd" d="M516.078 126.846C518.723 126 521.639 126.288 524.099 127.708C559.301 148.032 581.002 160.561 614.485 179.892C622.71 184.641 627.776 193.417 627.776 202.914C627.776 263.566 627.776 253.742 627.776 317.688C627.776 320.606 626.502 323.341 624.345 325.214C629.577 322.27 637.839 317.515 640.043 316.243C643.128 314.462 645.028 311.171 645.028 307.609C645.028 243.663 645.028 253.487 645.028 192.835C645.028 183.338 639.961 174.562 631.736 169.813C598.253 150.482 576.553 137.953 541.351 117.629C538.266 115.848 534.466 115.848 531.382 117.629C528.297 119.41 516.078 126.846 516.078 126.846Z" fill="white"/>
<path fill-rule="evenodd" clip-rule="evenodd" d="M516.078 126.846C518.723 126 521.639 126.288 524.099 127.708C559.301 148.032 581.002 160.561 614.485 179.892C622.71 184.641 627.776 193.417 627.776 202.914C627.776 263.566 627.776 253.742 627.776 317.688C627.776 320.606 626.502 323.341 624.345 325.214C629.577 322.27 637.839 317.515 640.043 316.243C643.128 314.462 645.028 311.171 645.028 307.609C645.028 243.663 645.028 253.487 645.028 192.835C645.028 183.338 639.961 174.562 631.736 169.813C598.253 150.482 576.553 137.953 541.351 117.629C538.266 115.848 534.466 115.848 531.382 117.629C528.297 119.41 516.078 126.846 516.078 126.846Z" stroke="#262725" stroke-width="2" stroke-linecap="round" stroke-linejoin="round"/>
<path fill-rule="evenodd" clip-rule="evenodd" d="M627.472 202.531C627.472 193.396 622.599 184.955 614.688 180.388C592.514 167.586 547.073 141.35 523.833 127.933C520.866 126.22 517.211 126.22 514.244 127.933C511.278 129.645 509.45 132.811 509.45 136.236C509.45 165.084 509.45 223.993 509.45 251.499C509.45 260.634 514.324 269.075 522.235 273.642C544.409 286.444 589.849 312.68 613.09 326.097C616.056 327.81 619.711 327.81 622.678 326.097C625.645 324.385 627.472 321.219 627.472 317.794C627.472 288.946 627.472 230.037 627.472 202.531Z" fill="#262725"/>
<path fill-rule="evenodd" clip-rule="evenodd" d="M627.472 202.531C627.472 193.396 622.599 184.955 614.688 180.388C592.514 167.586 547.073 141.35 523.833 127.933C520.866 126.22 517.211 126.22 514.244 127.933C511.278 129.645 509.45 132.811 509.45 136.236C509.45 165.084 509.45 223.993 509.45 251.499C509.45 260.634 514.324 269.075 522.235 273.642C544.409 286.444 589.849 312.68 613.09 326.097C616.056 327.81 619.711 327.81 622.678 326.097C625.645 324.385 627.472 321.219 627.472 317.794C627.472 288.946 627.472 230.037 627.472 202.531Z" stroke="#262725" stroke-width="2" stroke-linecap="round" stroke-linejoin="round"/>
<path fill-rule="evenodd" clip-rule="evenodd" d="M156.628 419.382C185.605 402.652 232.656 402.652 261.633 419.382C290.61 436.112 290.61 463.277 261.633 480.007C232.656 496.736 185.605 496.736 156.628 480.007C127.651 463.277 127.651 436.112 156.628 419.382Z" fill="white"/>
<path fill-rule="evenodd" clip-rule="evenodd" d="M156.628 419.382C185.605 402.652 232.656 402.652 261.633 419.382C290.61 436.112 290.61 463.277 261.633 480.007C232.656 496.736 185.605 496.736 156.628 480.007C127.651 463.277 127.651 436.112 156.628 419.382Z" stroke="#262725" stroke-width="2" stroke-linecap="round" stroke-linejoin="round"/>
<path fill-rule="evenodd" clip-rule="evenodd" d="M283.365 464.648H283.337C283.875 476.012 276.64 487.475 261.633 496.14C232.656 512.869 185.605 512.869 156.628 496.14C141.621 487.475 134.386 476.012 134.923 464.648H134.895V449.694C134.895 460.668 142.14 471.642 156.628 480.007C185.605 496.736 232.656 496.736 261.633 480.007C276.121 471.642 283.365 460.668 283.365 449.694V464.648Z" fill="#262725"/>
<path fill-rule="evenodd" clip-rule="evenodd" d="M283.365 464.648H283.337C283.875 476.012 276.64 487.475 261.633 496.14C232.656 512.869 185.605 512.869 156.628 496.14C141.621 487.475 134.386 476.012 134.923 464.648H134.895V449.694C134.895 460.668 142.14 471.642 156.628 480.007C185.605 496.736 232.656 496.736 261.633 480.007C276.121 471.642 283.365 460.668 283.365 449.694V464.648Z" stroke="#262725" stroke-width="2" stroke-linecap="round" stroke-linejoin="round"/>
<path fill-rule="evenodd" clip-rule="evenodd" d="M192.882 440.313C201.85 435.136 216.411 435.136 225.379 440.313C234.347 445.491 234.347 453.898 225.379 459.075C216.411 464.253 201.85 464.253 192.882 459.075C183.914 453.898 183.914 445.491 192.882 440.313Z" fill="#262725"/>
<path fill-rule="evenodd" clip-rule="evenodd" d="M209.13 324.864C234.684 324.864 255.43 345.61 255.43 371.163C255.43 396.716 234.684 417.462 209.13 417.462C183.577 417.462 162.831 396.716 162.831 371.163C162.831 345.61 183.577 324.864 209.13 324.864Z" fill="#262725"/>
<path fill-rule="evenodd" clip-rule="evenodd" d="M209.13 324.864C234.684 324.864 255.43 345.61 255.43 371.163C255.43 396.716 234.684 417.462 209.13 417.462C183.577 417.462 162.831 396.716 162.831 371.163C162.831 345.61 183.577 324.864 209.13 324.864Z" stroke="white" stroke-width="2" stroke-linecap="round" stroke-linejoin="round"/>
<path fill-rule="evenodd" clip-rule="evenodd" d="M577.087 235.832C577.087 227.258 572.513 219.334 565.087 215.047C521.947 190.14 374.199 104.838 315.831 71.139C310.88 68.281 304.781 68.281 299.831 71.139C294.88 73.997 291.831 79.279 291.831 84.996V326.136C291.831 334.71 296.405 342.633 303.831 346.92C346.971 371.827 494.718 457.129 553.087 490.829C558.037 493.687 564.136 493.687 569.087 490.829C574.037 487.97 577.087 482.688 577.087 476.972V235.832Z" fill="white"/>
<path fill-rule="evenodd" clip-rule="evenodd" d="M577.087 235.832C577.087 227.258 572.513 219.334 565.087 215.047C521.947 190.14 374.199 104.838 315.831 71.139C310.88 68.281 304.781 68.281 299.831 71.139C294.88 73.997 291.831 79.279 291.831 84.996V326.136C291.831 334.71 296.405 342.633 303.831 346.92C346.971 371.827 494.718 457.129 553.087 490.829C558.037 493.687 564.136 493.687 569.087 490.829C574.037 487.97 577.087 482.688 577.087 476.972V235.832Z" stroke="#262725" stroke-width="2" stroke-linecap="round" stroke-linejoin="round"/>
<path fill-rule="evenodd" clip-rule="evenodd" d="M300.173 70.948C305.06 68.283 310.994 68.347 315.831 71.139C374.199 104.838 521.947 190.14 565.087 215.047C572.513 219.334 577.087 227.258 577.087 235.832V476.972C577.087 481.901 574.819 486.508 571.021 489.515C574.08 487.844 577.941 485.716 580.557 484.206C585.508 481.348 588.557 476.066 588.557 470.35V229.21C588.557 220.635 583.983 212.712 576.557 208.425C533.417 183.518 385.67 98.216 327.301 64.517C322.351 61.659 316.251 61.659 311.301 64.517C306.351 67.375 300.173 70.947 300.173 70.947V70.948Z" fill="white"/>
<path fill-rule="evenodd" clip-rule="evenodd" d="M315.831 71.139C374.199 104.838 521.947 190.14 565.087 215.047C572.513 219.334 577.087 227.258 577.087 235.832V476.972C577.087 481.901 574.819 486.508 571.021 489.515C574.08 487.844 577.941 485.716 580.557 484.206C585.508 481.348 588.557 476.066 588.557 470.35V229.21C588.557 220.635 583.983 212.712 576.557 208.425C533.417 183.518 385.67 98.216 327.301 64.517C322.351 61.659 316.251 61.659 311.301 64.517C306.351 67.375 300.173 70.947 300.173 70.947C305.06 68.283 310.994 68.347 315.831 71.139Z" stroke="#262725" stroke-width="2" stroke-linecap="round" stroke-linejoin="round"/>
<path fill-rule="evenodd" clip-rule="evenodd" d="M577.087 454.957L291.831 290.264V326.136C291.831 334.71 296.405 342.633 303.831 346.92C346.971 371.827 494.718 457.129 553.087 490.829C558.037 493.687 564.136 493.687 569.087 490.829C574.037 487.97 577.087 482.688 577.087 476.972V454.957Z" fill="#262725"/>
<path fill-rule="evenodd" clip-rule="evenodd" d="M577.087 454.957L291.831 290.264V326.136C291.831 334.71 296.405 342.633 303.831 346.92C346.971 371.827 494.718 457.129 553.087 490.829C558.037 493.687 564.136 493.687 569.087 490.829C574.037 487.97 577.087 482.688 577.087 476.972V454.957Z" stroke="#262725" stroke-width="2" stroke-linecap="round" stroke-linejoin="round"/>
<path fill-rule="evenodd" clip-rule="evenodd" d="M258.191 164.993C259.441 164.593 260.819 164.729 261.981 165.4C278.613 175.003 288.866 180.923 304.687 190.056C308.573 192.3 310.967 196.446 310.967 200.934C310.967 229.591 310.967 224.949 310.967 255.162C310.967 256.541 310.364 257.833 309.345 258.718C311.817 257.327 325.349 249.578 326.39 248.977C327.848 248.135 328.745 246.58 328.745 244.898V190.669C328.745 186.182 326.352 182.035 322.465 179.792C306.645 170.658 296.392 164.738 279.76 155.136C278.303 154.294 276.507 154.294 275.05 155.136C273.593 155.977 258.191 164.993 258.191 164.993Z" fill="white"/>
<path fill-rule="evenodd" clip-rule="evenodd" d="M258.191 164.993C259.441 164.593 260.819 164.729 261.981 165.4C278.613 175.003 288.866 180.923 304.687 190.056C308.573 192.3 310.967 196.446 310.967 200.934C310.967 229.591 310.967 224.949 310.967 255.162C310.967 256.541 310.364 257.833 309.345 258.718C311.817 257.327 325.349 249.578 326.39 248.977C327.848 248.135 328.745 246.58 328.745 244.898V190.669C328.745 186.182 326.352 182.035 322.465 179.792C306.645 170.658 296.392 164.738 279.76 155.136C278.303 154.294 276.507 154.294 275.05 155.136C273.593 155.977 258.191 164.993 258.191 164.993Z" stroke="#262725" stroke-width="2" stroke-linecap="round" stroke-linejoin="round"/>
<path fill-rule="evenodd" clip-rule="evenodd" d="M310.967 200.693C310.967 196.355 308.652 192.346 304.895 190.177C294.364 184.097 272.784 171.637 261.747 165.265C260.338 164.452 258.602 164.452 257.193 165.265C255.784 166.078 254.916 167.582 254.916 169.209C254.916 182.909 254.916 210.886 254.916 223.949C254.916 228.287 257.231 232.296 260.988 234.465C271.518 240.545 293.099 253.004 304.136 259.377C305.545 260.19 307.281 260.19 308.69 259.377C310.099 258.563 310.967 257.06 310.967 255.433C310.967 241.733 310.967 213.756 310.967 200.693Z" fill="#262725"/>
<path fill-rule="evenodd" clip-rule="evenodd" d="M310.967 200.693C310.967 196.355 308.652 192.346 304.895 190.177C294.364 184.097 272.784 171.637 261.747 165.265C260.338 164.452 258.602 164.452 257.193 165.265C255.784 166.078 254.916 167.582 254.916 169.209C254.916 182.909 254.916 210.886 254.916 223.949C254.916 228.287 257.231 232.296 260.988 234.465C271.518 240.545 293.099 253.004 304.136 259.377C305.545 260.19 307.281 260.19 308.69 259.377C310.099 258.563 310.967 257.06 310.967 255.433C310.967 241.733 310.967 213.756 310.967 200.693Z" stroke="#262725" stroke-width="2" stroke-linecap="round" stroke-linejoin="round"/>
<path fill-rule="evenodd" clip-rule="evenodd" d="M313.76 87.283C316.824 89.052 319.312 93.361 319.312 96.899C319.312 100.437 316.824 101.874 313.76 100.105C310.696 98.335 308.208 94.027 308.208 90.488C308.208 86.95 310.696 85.514 313.76 87.283Z" fill="white"/>
<path fill-rule="evenodd" clip-rule="evenodd" d="M313.76 87.283C316.824 89.052 319.312 93.361 319.312 96.899C319.312 100.437 316.824 101.874 313.76 100.105C310.696 98.335 308.208 94.027 308.208 90.488C308.208 86.95 310.696 85.514 313.76 87.283Z" stroke="#262725" stroke-width="2" stroke-linecap="round" stroke-linejoin="round"/>
<path fill-rule="evenodd" clip-rule="evenodd" d="M331.719 97.652C334.784 99.421 337.271 103.73 337.271 107.268C337.271 110.806 334.784 112.242 331.719 110.473C328.655 108.704 326.168 104.395 326.168 100.857C326.168 97.319 328.655 95.883 331.719 97.652Z" fill="#262725"/>
<path fill-rule="evenodd" clip-rule="evenodd" d="M331.719 97.652C334.784 99.421 337.271 103.73 337.271 107.268C337.271 110.806 334.784 112.242 331.719 110.473C328.655 108.704 326.168 104.395 326.168 100.857C326.168 97.319 328.655 95.883 331.719 97.652Z" stroke="#262725" stroke-width="2" stroke-linecap="round" stroke-linejoin="round"/>
<path fill-rule="evenodd" clip-rule="evenodd" d="M349.679 108.02C352.743 109.79 355.231 114.098 355.231 117.637C355.231 121.175 352.743 122.611 349.679 120.842C346.614 119.073 344.127 114.764 344.127 111.226C344.127 107.688 346.614 106.251 349.679 108.02Z" fill="white"/>
<path fill-rule="evenodd" clip-rule="evenodd" d="M349.679 108.02C352.743 109.79 355.231 114.098 355.231 117.637C355.231 121.175 352.743 122.611 349.679 120.842C346.614 119.073 344.127 114.764 344.127 111.226C344.127 107.688 346.614 106.251 349.679 108.02Z" stroke="#262725" stroke-width="2" stroke-linecap="round" stroke-linejoin="round"/>
<path fill-rule="evenodd" clip-rule="evenodd" d="M496.96 330.925C496.96 322.351 492.385 314.428 484.96 310.14C459.326 295.341 399.373 260.727 372.458 245.187C369.673 243.58 366.242 243.58 363.458 245.187C360.673 246.795 358.958 249.766 358.958 252.982C358.958 263.847 358.958 278.213 358.958 288.677C358.958 297.252 363.532 305.175 370.958 309.462C396.591 324.262 456.544 358.875 483.46 374.415C486.244 376.023 489.675 376.023 492.46 374.415C495.244 372.807 496.96 369.836 496.96 366.621C496.96 355.756 496.96 341.39 496.96 330.925Z" fill="white"/>
<path fill-rule="evenodd" clip-rule="evenodd" d="M496.96 330.925C496.96 322.351 492.385 314.428 484.96 310.14C459.326 295.341 399.373 260.727 372.458 245.187C369.673 243.58 366.242 243.58 363.458 245.187C360.673 246.795 358.958 249.766 358.958 252.982C358.958 263.847 358.958 278.213 358.958 288.677C358.958 297.252 363.532 305.175 370.958 309.462C396.591 324.262 456.544 358.875 483.46 374.415C486.244 376.023 489.675 376.023 492.46 374.415C495.244 372.807 496.96 369.836 496.96 366.621C496.96 355.756 496.96 341.39 496.96 330.925Z" stroke="#262725" stroke-width="2" stroke-linecap="round" stroke-linejoin="round"/>
<path fill-rule="evenodd" clip-rule="evenodd" d="M496.96 239.834C496.96 231.26 492.385 223.337 484.96 219.049C459.326 204.25 399.373 169.636 372.458 154.096C369.673 152.489 366.242 152.489 363.458 154.096C360.673 155.704 358.958 158.675 358.958 161.891C358.958 172.756 358.958 187.122 358.958 197.586C358.958 206.161 363.532 214.084 370.958 218.371C396.591 233.171 456.544 267.784 483.46 283.324C486.244 284.932 489.675 284.932 492.46 283.324C495.244 281.716 496.96 278.745 496.96 275.53C496.96 264.664 496.96 250.299 496.96 239.834Z" fill="#262725"/>
<path fill-rule="evenodd" clip-rule="evenodd" d="M496.96 239.834C496.96 231.26 492.385 223.337 484.96 219.049C459.326 204.25 399.373 169.636 372.458 154.096C369.673 152.489 366.242 152.489 363.458 154.096C360.673 155.704 358.958 158.675 358.958 161.891C358.958 172.756 358.958 187.122 358.958 197.586C358.958 206.161 363.532 214.084 370.958 218.371C396.591 233.171 456.544 267.784 483.46 283.324C486.244 284.932 489.675 284.932 492.46 283.324C495.244 281.716 496.96 278.745 496.96 275.53C496.96 264.664 496.96 250.299 496.96 239.834Z" stroke="#262725" stroke-width="2" stroke-linecap="round" stroke-linejoin="round"/>
<path fill-rule="evenodd" clip-rule="evenodd" d="M389.432 163.896V179.992C389.432 188.566 394.006 196.489 401.432 200.777L496.96 255.93V239.834C496.96 231.26 492.385 223.337 484.96 219.049L389.432 163.896Z" fill="white"/>
<path fill-rule="evenodd" clip-rule="evenodd" d="M389.432 163.896V179.992C389.432 188.566 394.006 196.489 401.432 200.777L496.96 255.93V239.834C496.96 231.26 492.385 223.337 484.96 219.049L389.432 163.896Z" stroke="#262725" stroke-width="2" stroke-linecap="round" stroke-linejoin="round"/>
<path fill-rule="evenodd" clip-rule="evenodd" d="M384.342 269.141C391.74 273.412 397.746 283.815 397.746 292.358C397.746 300.901 391.74 304.368 384.342 300.097C376.944 295.826 370.937 285.423 370.937 276.88C370.937 268.337 376.944 264.87 384.342 269.141Z" fill="#262725"/>
<path fill-rule="evenodd" clip-rule="evenodd" d="M384.342 269.141C391.74 273.412 397.746 283.815 397.746 292.358C397.746 300.901 391.74 304.368 384.342 300.097C376.944 295.826 370.937 285.423 370.937 276.88C370.937 268.337 376.944 264.87 384.342 269.141Z" stroke="#262725" stroke-width="2" stroke-linecap="round" stroke-linejoin="round"/>
<path fill-rule="evenodd" clip-rule="evenodd" d="M475.359 324.69L407.956 285.775V294.41L475.359 333.325V324.69Z" fill="#262725"/>
<path fill-rule="evenodd" clip-rule="evenodd" d="M475.359 324.69L407.956 285.775V294.41L475.359 333.325V324.69Z" stroke="#262725" stroke-width="2" stroke-linecap="round" stroke-linejoin="round"/>
<path fill-rule="evenodd" clip-rule="evenodd" d="M441.658 321.553L407.956 302.096V310.731L441.658 330.188V321.553Z" fill="#262725"/>
<path fill-rule="evenodd" clip-rule="evenodd" d="M441.658 321.553L407.956 302.096V310.731L441.658 330.188V321.553Z" stroke="#262725" stroke-width="2" stroke-linecap="round" stroke-linejoin="round"/>
<path fill-rule="evenodd" clip-rule="evenodd" d="M360.568 409.938L339.727 421.97V447.183L360.568 459.216L381.409 447.183V421.97L360.568 409.938Z" fill="#262725"/>
<path fill-rule="evenodd" clip-rule="evenodd" d="M360.568 409.938L339.727 421.97V447.183L360.568 459.216L381.409 447.183V421.97L360.568 409.938Z" stroke="#262725" stroke-width="2" stroke-linecap="round" stroke-linejoin="round"/>
<path fill-rule="evenodd" clip-rule="evenodd" d="M381.409 421.97L360.568 434.003V459.216L381.409 447.183V421.97Z" fill="white"/>
<path fill-rule="evenodd" clip-rule="evenodd" d="M381.409 421.97L360.568 434.003V459.216L381.409 447.183V421.97Z" stroke="#262725" stroke-width="2" stroke-linecap="round" stroke-linejoin="round"/>
<path fill-rule="evenodd" clip-rule="evenodd" d="M360.568 409.938L339.727 421.97L360.568 434.003L381.409 421.97L360.568 409.938Z" fill="white"/>
<path fill-rule="evenodd" clip-rule="evenodd" d="M360.568 409.938L339.727 421.97L360.568 434.003L381.409 421.97L360.568 409.938Z" stroke="#262725" stroke-width="2" stroke-linecap="round" stroke-linejoin="round"/>
<path fill-rule="evenodd" clip-rule="evenodd" d="M391.536 404.091L370.695 416.123V465.063L391.536 477.095L412.377 465.063V416.123L391.536 404.091Z" fill="#262725"/>
<path fill-rule="evenodd" clip-rule="evenodd" d="M391.536 404.091L370.695 416.123V465.063L391.536 477.095L412.377 465.063V416.123L391.536 404.091Z" stroke="#262725" stroke-width="2" stroke-linecap="round" stroke-linejoin="round"/>
<path fill-rule="evenodd" clip-rule="evenodd" d="M412.377 416.123L391.536 428.156V477.095L412.377 465.063V416.123Z" fill="white"/>
<path fill-rule="evenodd" clip-rule="evenodd" d="M412.377 416.123L391.536 428.156V477.095L412.377 465.063V416.123Z" stroke="#262725" stroke-width="2" stroke-linecap="round" stroke-linejoin="round"/>
<path fill-rule="evenodd" clip-rule="evenodd" d="M391.536 404.091L370.695 416.123L391.536 428.156L412.377 416.123L391.536 404.091Z" fill="white"/>
<path fill-rule="evenodd" clip-rule="evenodd" d="M391.536 404.091L370.695 416.123L391.536 428.156L412.377 416.123L391.536 404.091Z" stroke="#262725" stroke-width="2" stroke-linecap="round" stroke-linejoin="round"/>
<path fill-rule="evenodd" clip-rule="evenodd" d="M424.893 389.126L404.052 401.159V484.321L424.893 496.354L445.734 484.321V401.159L424.893 389.126Z" fill="#262725"/>
<path fill-rule="evenodd" clip-rule="evenodd" d="M424.893 389.126L404.052 401.159V484.321L424.893 496.354L445.734 484.321V401.159L424.893 389.126Z" stroke="#262725" stroke-width="2" stroke-linecap="round" stroke-linejoin="round"/>
<path fill-rule="evenodd" clip-rule="evenodd" d="M445.734 401.159L424.893 413.191V496.354L445.734 484.321V401.159Z" fill="white"/>
<path fill-rule="evenodd" clip-rule="evenodd" d="M445.734 401.159L424.893 413.191V496.354L445.734 484.321V401.159Z" stroke="#262725" stroke-width="2" stroke-linecap="round" stroke-linejoin="round"/>
<path fill-rule="evenodd" clip-rule="evenodd" d="M424.893 389.126L404.052 401.159L424.893 413.191L445.734 401.159L424.893 389.126Z" fill="white"/>
<path fill-rule="evenodd" clip-rule="evenodd" d="M424.893 389.126L404.052 401.159L424.893 413.191L445.734 401.159L424.893 389.126Z" stroke="#262725" stroke-width="2" stroke-linecap="round" stroke-linejoin="round"/>
<path fill-rule="evenodd" clip-rule="evenodd" d="M385.407 179.416C392.663 183.605 398.553 193.808 398.553 202.186C398.553 210.564 392.663 213.965 385.407 209.776C378.152 205.587 372.261 195.384 372.261 187.006C372.261 178.628 378.152 175.227 385.407 179.416Z" fill="white"/>
<path fill-rule="evenodd" clip-rule="evenodd" d="M385.407 179.416C392.663 183.605 398.553 193.808 398.553 202.186C398.553 210.564 392.663 213.965 385.407 209.776C378.152 205.587 372.261 195.384 372.261 187.006C372.261 178.628 378.152 175.227 385.407 179.416Z" stroke="#262725" stroke-width="2" stroke-linecap="round" stroke-linejoin="round"/>
<path fill-rule="evenodd" clip-rule="evenodd" d="M376.38 178.353L385.232 173.244C385.419 173.123 385.612 173.011 385.81 172.911L385.811 172.91C388.163 171.715 391.33 171.978 394.81 173.987C402.066 178.176 407.956 188.379 407.956 196.757C407.956 201.011 406.438 203.981 403.993 205.327L394.716 210.685C397.086 209.308 398.553 206.367 398.553 202.186C398.553 193.808 392.663 183.605 385.407 179.416C381.914 177.399 378.736 177.142 376.38 178.353Z" fill="white"/>
<path fill-rule="evenodd" clip-rule="evenodd" d="M376.38 178.353L385.232 173.244C385.419 173.123 385.612 173.011 385.81 172.911C388.163 171.715 391.33 171.978 394.81 173.987C402.066 178.176 407.956 188.379 407.956 196.757C407.956 201.011 406.438 203.981 403.993 205.327L394.716 210.685C397.086 209.308 398.553 206.367 398.553 202.186C398.553 193.808 392.663 183.605 385.407 179.416C381.914 177.399 378.736 177.142 376.38 178.353Z" stroke="#262725" stroke-width="2" stroke-linecap="round" stroke-linejoin="round"/>
<path fill-rule="evenodd" clip-rule="evenodd" d="M235.727 223.036C242.983 227.225 248.873 237.427 248.873 245.805C248.873 254.183 242.983 257.584 235.727 253.395C228.472 249.206 222.581 239.004 222.581 230.626C222.581 222.248 228.472 218.847 235.727 223.036Z" fill="white"/>
<path fill-rule="evenodd" clip-rule="evenodd" d="M235.727 223.036C242.983 227.225 248.873 237.427 248.873 245.805C248.873 254.183 242.983 257.584 235.727 253.395C228.472 249.206 222.581 239.004 222.581 230.626C222.581 222.248 228.472 218.847 235.727 223.036Z" stroke="#262725" stroke-width="2" stroke-linecap="round" stroke-linejoin="round"/>
<path fill-rule="evenodd" clip-rule="evenodd" d="M226.701 221.972L240.082 214.248C240.269 214.127 240.462 214.015 240.66 213.914H240.661C243.014 212.719 246.18 212.982 249.66 214.991C256.916 219.18 262.806 229.383 262.806 237.761C262.806 242.015 261.288 244.985 258.844 246.331L245.036 254.304C247.406 252.927 248.873 249.986 248.873 245.805C248.873 237.427 242.983 227.225 235.727 223.036C232.234 221.019 229.057 220.761 226.701 221.972Z" fill="white"/>
<path fill-rule="evenodd" clip-rule="evenodd" d="M226.701 221.972L240.082 214.248C240.269 214.127 240.462 214.015 240.66 213.914C243.014 212.719 246.18 212.982 249.66 214.991C256.916 219.18 262.806 229.383 262.806 237.761C262.806 242.015 261.288 244.985 258.844 246.331L245.036 254.304C247.406 252.927 248.873 249.986 248.873 245.805C248.873 237.427 242.983 227.225 235.727 223.036C232.234 221.019 229.057 220.761 226.701 221.972Z" stroke="#262725" stroke-width="2" stroke-linecap="round" stroke-linejoin="round"/>
</g>
<defs>
<clipPath id="clip0_2_227">
<rect width="800" height="600" fill="white"/>
</clipPath>
</defs>
</svg>
