<?xml version="1.0" standalone="no"?>
<!DOCTYPE svg PUBLIC "-//W3C//DTD SVG 20010904//EN"
 "http://www.w3.org/TR/2001/REC-SVG-20010904/DTD/svg10.dtd">
<svg version="1.0" xmlns="http://www.w3.org/2000/svg"
 width="500.000000pt" height="500.000000pt" viewBox="0 0 500.000000 500.000000"
 preserveAspectRatio="xMidYMid meet">

<g transform="translate(0.000000,500.000000) scale(0.100000,-0.100000)"
fill="#000000" stroke="none">
<path d="M0 2500 l0 -2500 2500 0 2500 0 0 2500 0 2500 -2500 0 -2500 0 0
-2500z m2887 1835 c143 -19 346 -71 468 -120 89 -36 269 -125 263 -130 -2 -2
-52 21 -113 51 -302 147 -624 216 -939 200 -151 -7 -338 -34 -330 -48 3 -5 -6
-6 -23 -3 -22 5 -25 4 -13 -5 12 -9 9 -10 -13 -5 -17 3 -26 2 -23 -4 8 -12
-37 -23 -60 -14 -11 4 -15 3 -11 -4 8 -12 -50 -36 -65 -27 -22 14 -248 -94
-384 -184 -249 -163 -446 -380 -604 -662 -23 -41 -39 -66 -35 -55 13 42 130
237 191 318 174 232 429 432 706 554 163 72 343 118 573 146 79 10 306 5 412
-8z m-897 -135 c-8 -5 -19 -10 -25 -10 -5 0 -3 5 5 10 8 5 20 10 25 10 6 0 3
-5 -5 -10z m-61 -24 c-10 -9 -109 -56 -109 -51 0 6 91 54 104 55 5 0 7 -2 5
-4z m842 -6 c251 -18 465 -78 689 -191 74 -38 178 -99 230 -136 119 -84 325
-290 407 -406 163 -232 275 -535 288 -782 5 -103 -1 -84 -34 111 -27 161 -67
279 -151 449 -84 170 -187 311 -327 446 -320 310 -694 469 -1143 486 -450 17
-877 -145 -1199 -453 -79 -74 -188 -205 -224 -267 l-19 -32 22 25 c12 14 53
62 92 108 429 507 1101 703 1721 501 115 -37 309 -131 404 -195 285 -194 499
-471 602 -780 30 -88 41 -169 22 -148 -5 5 -26 54 -46 109 -147 394 -417 700
-780 880 -239 119 -434 165 -698 165 -207 0 -430 -39 -512 -90 -16 -10 -60
-30 -98 -44 -86 -32 -235 -109 -267 -138 -14 -13 -21 -20 -16 -15 6 4 14 7 19
7 5 0 -58 -66 -140 -147 -210 -207 -320 -380 -412 -648 -64 -184 -75 -253 -68
-440 9 -239 42 -374 147 -590 224 -462 648 -747 1180 -795 l105 -9 -125 5
c-573 20 -1074 403 -1271 970 -91 263 -103 596 -30 859 11 38 18 71 16 73 -13
13 -80 -258 -90 -368 -10 -95 11 -301 39 -395 97 -321 111 -358 200 -509 99
-168 224 -305 390 -428 704 -523 1696 -356 2186 367 19 27 58 95 87 150 66
125 69 95 5 -40 -199 -411 -522 -677 -967 -796 -101 -27 -105 -29 -50 -24 116
10 275 53 371 100 284 138 579 415 725 680 64 118 75 106 14 -15 -196 -387
-551 -684 -971 -811 -168 -50 -270 -64 -494 -64 -113 0 -182 -3 -155 -7 28 -3
121 -7 207 -7 234 -1 426 28 613 93 111 38 112 38 84 22 -44 -26 -258 -95
-363 -118 -85 -19 -133 -22 -301 -22 -216 -1 -293 8 -475 54 -344 87 -670 285
-886 538 -36 42 -71 77 -77 77 -7 0 -12 8 -12 18 0 10 -11 27 -25 38 -14 12
-18 18 -10 14 8 -4 5 2 -7 12 -52 43 -177 295 -233 468 -111 347 -115 689 -14
1010 20 63 95 237 100 232 2 -2 -9 -33 -26 -70 -44 -98 -97 -281 -114 -399
-19 -126 -21 -347 -4 -472 11 -79 13 -86 20 -56 5 25 6 17 3 -25 -3 -44 -2
-53 5 -35 7 20 8 15 5 -20 -4 -35 -3 -40 5 -25 8 15 9 11 5 -20 -4 -31 -3 -36
5 -25 9 11 10 7 5 -20 -5 -27 -4 -32 5 -20 9 12 10 9 5 -13 -4 -20 -2 -27 6
-22 8 5 9 1 4 -15 -5 -17 -4 -21 6 -15 9 6 11 2 7 -13 -4 -12 -2 -22 4 -22 6
0 7 -7 4 -16 -4 -10 -2 -13 6 -8 8 5 9 2 5 -9 -4 -10 -2 -17 4 -17 6 0 9 -7 5
-15 -3 -8 -1 -15 4 -15 4 0 14 -16 20 -36 7 -19 14 -34 16 -31 2 2 -10 41 -27
87 -32 88 -79 270 -79 305 0 17 2 18 11 5 8 -11 9 -6 4 22 -29 176 -23 433 14
614 102 498 434 930 891 1159 120 60 244 96 225 65 -3 -5 -73 -44 -154 -85
-173 -87 -261 -145 -384 -252 -159 -137 -295 -317 -392 -518 -133 -276 -188
-586 -155 -880 11 -93 41 -248 47 -241 2 2 -3 41 -11 87 -22 130 -30 348 -17
474 74 696 568 1243 1262 1399 97 22 157 30 329 45 8 0 76 -4 151 -9z m-1001
-75 c0 -2 -10 -9 -22 -15 -22 -11 -22 -10 -4 4 21 17 26 19 26 11z m1030 -210
c450 -68 762 -403 867 -930 23 -114 26 -507 5 -625 -57 -317 -168 -549 -354
-739 -194 -197 -420 -296 -704 -308 -306 -13 -546 57 -749 221 -244 195 -379
494 -404 894 -41 647 213 1163 683 1393 199 97 426 129 656 94z m-1720 -505
c-11 -22 -23 -40 -25 -40 -3 0 4 18 15 40 11 22 23 40 25 40 3 0 -4 -18 -15
-40z m-94 -117 c-8 -15 -15 -25 -16 -21 0 12 23 58 27 54 3 -2 -2 -17 -11 -33z
m-25 -60 c-12 -20 -14 -14 -5 12 4 9 9 14 11 11 3 -2 0 -13 -6 -23z m48 -50
c-55 -159 -87 -331 -99 -543 l-9 -135 4 150 c6 198 42 395 104 558 20 52 20
27 0 -30z m-102 -115 c-3 -8 -6 -5 -6 6 -1 11 2 17 5 13 3 -3 4 -12 1 -19z
m-10 -40 c-3 -8 -6 -5 -6 6 -1 11 2 17 5 13 3 -3 4 -12 1 -19z m-10 -40 c-3
-8 -6 -5 -6 6 -1 11 2 17 5 13 3 -3 4 -12 1 -19z m-10 -50 c-3 -8 -6 -5 -6 6
-1 11 2 17 5 13 3 -3 4 -12 1 -19z m-10 -60 c-3 -7 -5 -2 -5 12 0 14 2 19 5
13 2 -7 2 -19 0 -25z m-10 -75 c-3 -10 -5 -4 -5 12 0 17 2 24 5 18 2 -7 2 -21
0 -30z m325 -175 c-6 -244 35 -433 138 -643 85 -173 208 -326 360 -448 26 -21
23 -20 -13 4 -68 47 -213 201 -272 289 -103 155 -177 343 -209 529 -20 118
-22 411 -2 411 1 0 0 -64 -2 -142z m-335 20 c-2 -18 -4 -4 -4 32 0 36 2 50 4
33 2 -18 2 -48 0 -65z m0 -130 c-2 -18 -4 -6 -4 27 0 33 2 48 4 33 2 -15 2
-42 0 -60z m3450 -155 c-2 -38 -3 -7 -3 67 0 74 1 105 3 68 2 -38 2 -98 0
-135z m-3380 60 c-2 -16 -4 -3 -4 27 0 30 2 43 4 28 2 -16 2 -40 0 -55z m-60
-35 c-3 -7 -5 -2 -5 12 0 14 2 19 5 13 2 -7 2 -19 0 -25z m10 -70 c-3 -7 -5
-2 -5 12 0 14 2 19 5 13 2 -7 2 -19 0 -25z m10 -50 c-3 -8 -6 -5 -6 6 -1 11 2
17 5 13 3 -3 4 -12 1 -19z m3410 -35 c-3 -10 -5 -4 -5 12 0 17 2 24 5 18 2 -7
2 -21 0 -30z m-10 -65 c-3 -7 -5 -2 -5 12 0 14 2 19 5 13 2 -7 2 -19 0 -25z
m-10 -50 c-3 -8 -6 -5 -6 6 -1 11 2 17 5 13 3 -3 4 -12 1 -19z m-3267 -223 c0
-5 -5 -3 -10 5 -5 8 -10 20 -10 25 0 6 5 3 10 -5 5 -8 10 -19 10 -25z m3166
-74 c-15 -28 -28 -51 -31 -51 -3 0 7 25 22 55 15 30 29 53 31 51 2 -2 -8 -27
-22 -55z m-50 -88 c-8 -16 -22 -37 -31 -48 -16 -19 -17 -19 -3 5 8 14 20 35
27 48 6 12 14 22 17 22 2 0 -2 -12 -10 -27z m154 -130 c0 -8 104 -1 121 8 18
9 19 8 10 -8 -5 -10 -16 -27 -25 -38 -12 -16 -15 -17 -16 -5 0 12 -8 15 -36
12 -28 -3 -34 -8 -28 -21 3 -9 9 -24 11 -34 3 -10 12 -16 19 -13 17 7 17 -4 0
-26 -13 -18 -32 -25 -22 -9 4 5 -3 30 -14 56 l-20 47 -60 -4 c-33 -1 -60 -2
-60 -1 0 2 9 17 20 35 13 22 20 27 20 16 0 -14 8 -18 35 -18 l35 0 -14 33 c-7
17 -18 31 -25 30 -14 -4 -14 3 1 26 11 18 14 14 30 -32 10 -28 18 -53 18 -54z
m-3220 47 c45 -45 37 -110 -19 -147 -46 -31 -91 -30 -125 3 -45 45 -31 120 29
152 33 19 93 14 115 -8z m161 -97 c13 -16 12 -17 -3 -4 -10 7 -18 15 -18 17 0
8 8 3 21 -13z m45 -55 l29 -33 -32 29 c-31 28 -38 36 -30 36 2 0 16 -15 33
-32z m2694 -2 c0 -2 -8 -10 -17 -17 -16 -13 -17 -12 -4 4 13 16 21 21 21 13z
m-2615 -86 c27 -27 47 -50 44 -50 -3 0 -27 23 -54 50 -27 28 -47 50 -44 50 3
0 27 -22 54 -50z m2545 7 c0 -1 -26 -27 -57 -57 l-58 -55 55 58 c50 53 60 62
60 54z m134 -40 c-6 -16 113 -130 127 -122 20 13 7 -13 -18 -36 -18 -17 -24
-19 -20 -7 8 24 -105 130 -130 121 -13 -4 -9 3 11 25 33 35 38 38 30 19z
m-2684 -105 c0 -26 -35 -56 -59 -49 -15 4 -23 -4 -36 -39 -9 -24 -14 -48 -10
-54 3 -5 1 -10 -5 -10 -20 0 -23 33 -6 78 13 36 14 47 4 53 -14 9 -47 -16 -57
-44 -6 -16 -9 -15 -31 8 -21 23 -22 25 -5 25 23 0 125 98 125 120 0 9 16 -1
40 -27 22 -23 40 -51 40 -61z m110 43 c13 -14 21 -25 18 -25 -2 0 -15 11 -28
25 -13 14 -21 25 -18 25 2 0 15 -11 28 -25z m2320 -8 c0 -2 -15 -16 -32 -33
l-33 -29 29 33 c28 30 36 37 36 29z m-2180 -104 c0 -7 -89 59 -103 76 -7 8 14
-5 46 -28 31 -24 57 -45 57 -48z m2110 44 c0 -2 -10 -12 -22 -23 l-23 -19 19
23 c18 21 26 27 26 19z m128 -79 c18 -18 14 -30 -7 -19 -13 7 -23 6 -35 -2
-16 -12 -13 -19 34 -79 33 -43 57 -65 66 -61 24 9 16 -5 -17 -28 -21 -14 -30
-17 -27 -8 5 13 -69 120 -93 134 -18 12 -40 -15 -28 -36 11 -21 -1 -25 -19 -7
-19 19 -16 23 46 72 63 51 63 51 80 34z m-2233 -88 c54 -37 70 -78 51 -125
-17 -41 -51 -65 -92 -65 -36 0 -139 63 -111 68 18 4 100 117 100 139 0 18 2
17 52 -17z m195 20 c8 -5 11 -10 5 -10 -5 0 -17 5 -25 10 -8 5 -10 10 -5 10 6
0 17 -5 25 -10z m1636 -35 c-11 -8 -25 -15 -30 -15 -6 1 0 7 14 15 32 19 40
18 16 0z m76 -104 c-11 -6 -5 -26 28 -91 23 -45 39 -84 37 -87 -3 -2 -46 16
-96 41 l-91 46 32 -64 c17 -36 35 -63 40 -60 4 3 8 1 8 -4 0 -10 -24 -22 -43
-22 -9 0 -8 3 0 8 10 6 4 27 -23 82 -19 41 -40 78 -46 81 -5 4 -3 9 7 12 9 4
49 -10 95 -33 78 -39 79 -40 70 -15 -20 52 -40 84 -57 88 -15 3 -14 6 7 15 30
13 50 15 32 3z m-1345 -7 c-3 -3 -12 -4 -19 -1 -8 3 -5 6 6 6 11 1 17 -2 13
-5z m70 -20 c-3 -3 -12 -4 -19 -1 -8 3 -5 6 6 6 11 1 17 -2 13 -5z m40 -10
c-3 -3 -12 -4 -19 -1 -8 3 -5 6 6 6 11 1 17 -2 13 -5z m40 -10 c-3 -3 -12 -4
-19 -1 -8 3 -5 6 6 6 11 1 17 -2 13 -5z m-351 -28 c32 -13 58 -27 57 -30 -2
-3 -3 -13 -3 -21 0 -8 -5 -15 -11 -15 -6 0 -8 8 -4 19 4 15 -1 21 -27 30 -34
12 -38 10 -56 -31 -10 -25 -9 -28 13 -34 13 -3 29 -3 34 1 14 8 14 3 0 -32
-11 -28 -11 -28 -20 -5 -13 33 -45 28 -58 -10 -9 -24 -8 -34 1 -40 25 -16 59
-20 73 -8 17 14 20 3 6 -19 -8 -12 -16 -11 -53 4 -23 9 -54 21 -67 26 -21 9
-22 11 -8 22 20 15 69 137 63 154 -7 17 -9 17 60 -11z m447 7 c-7 -2 -19 -2
-25 0 -7 3 -2 5 12 5 14 0 19 -2 13 -5z m64 -9 c-3 -3 -12 -4 -19 -1 -8 3 -5
6 6 6 11 1 17 -2 13 -5z m653 -104 c-1 -12 -3 -12 -14 3 -10 13 -21 15 -46 11
-30 -7 -32 -9 -26 -42 3 -19 7 -36 9 -38 8 -8 47 10 47 23 0 22 17 6 22 -22 5
-24 -7 -36 -14 -15 -1 5 -14 7 -27 3 -20 -5 -22 -10 -18 -41 8 -44 8 -45 48
-35 23 7 35 16 39 34 l6 24 8 -24 c10 -29 3 -35 -62 -49 -66 -15 -75 -15 -67
-2 4 6 -1 46 -11 90 -12 58 -21 80 -33 81 -9 1 16 9 54 19 71 17 85 14 85 -20z
m-757 -19 c24 -23 17 -67 -12 -76 -17 -5 -18 -10 -9 -43 6 -20 15 -43 20 -50
6 -7 8 -15 4 -19 -11 -11 -40 25 -51 65 -14 49 -41 55 -48 10 -2 -18 0 -39 7
-47 9 -12 7 -13 -14 -8 -14 4 -32 7 -40 7 -12 0 -12 2 -2 9 19 12 46 159 33
175 -18 22 90 0 112 -23z m382 -11 c3 -5 1 -18 -4 -27 -10 -17 -11 -16 -17 5
-7 26 -36 29 -58 7 -22 -22 -12 -38 39 -63 84 -41 67 -112 -27 -112 -41 0 -48
3 -48 19 0 27 17 35 23 11 6 -23 35 -26 62 -6 26 18 14 39 -37 67 -33 19 -44
31 -46 54 -3 19 2 33 14 42 21 15 90 17 99 3z"/>
<path d="M971 2254 c0 -11 3 -14 6 -6 3 7 2 16 -1 19 -3 4 -6 -2 -5 -13z"/>
<path d="M1061 2144 c0 -11 3 -14 6 -6 3 7 2 16 -1 19 -3 4 -6 -2 -5 -13z"/>
<path d="M1081 1905 c0 -5 6 -21 14 -35 8 -14 14 -20 14 -15 0 6 -6 21 -14 35
-8 14 -14 21 -14 15z"/>
<path d="M1160 1743 c56 -99 117 -186 177 -249 32 -34 41 -42 21 -19 -60 70
-127 165 -176 248 -24 42 -47 77 -49 77 -3 0 10 -26 27 -57z"/>
<path d="M1495 1330 c10 -11 20 -20 23 -20 3 0 -3 9 -13 20 -10 11 -20 20 -23
20 -3 0 3 -9 13 -20z"/>
<path d="M1904 1129 c231 -118 462 -170 739 -167 l172 1 -190 7 c-290 11 -527
69 -755 185 -27 14 -53 25 -57 24 -4 0 37 -23 91 -50z"/>
<path d="M2858 1003 c6 -2 18 -2 25 0 6 3 1 5 -13 5 -14 0 -19 -2 -12 -5z"/>
<path d="M2208 943 c7 -3 16 -2 19 1 4 3 -2 6 -13 5 -11 0 -14 -3 -6 -6z"/>
<path d="M2248 933 c6 -2 18 -2 25 0 6 3 1 5 -13 5 -14 0 -19 -2 -12 -5z"/>
<path d="M2298 923 c6 -2 18 -2 25 0 6 3 1 5 -13 5 -14 0 -19 -2 -12 -5z"/>
<path d="M2353 913 c9 -2 23 -2 30 0 6 3 -1 5 -18 5 -16 0 -22 -2 -12 -5z"/>
<path d="M2455 3754 c-222 -48 -385 -209 -431 -426 -21 -96 -14 -258 15 -350
12 -37 40 -92 65 -125 90 -122 230 -186 576 -262 534 -117 699 -264 702 -629
1 -71 4 -109 10 -100 60 88 129 286 159 454 26 144 31 459 10 589 -17 105 -46
223 -70 278 l-19 44 -87 -14 c-49 -8 -95 -13 -103 -11 -10 2 -23 34 -38 97
-63 258 -203 405 -431 455 -90 20 -263 20 -358 0z"/>
<path d="M1928 3508 c-179 -177 -287 -401 -340 -698 -19 -112 -17 -471 5 -585
26 -135 35 -165 55 -165 9 0 58 7 107 14 60 9 92 10 96 3 4 -5 10 -28 13 -51
12 -77 58 -211 99 -291 79 -152 198 -243 384 -292 86 -23 119 -26 273 -27 158
-1 182 1 250 22 107 34 186 77 246 134 113 106 156 211 157 378 1 323 -144
443 -665 549 -424 87 -616 221 -684 476 -24 93 -30 256 -11 345 19 94 50 177
83 225 14 21 23 39 20 42 -2 3 -42 -33 -88 -79z"/>
<path d="M965 1608 c-44 -24 -65 -52 -65 -84 0 -62 72 -67 134 -9 62 57 5 134
-69 93z"/>
<path d="M1244 1269 c-28 -30 -28 -31 -10 -45 26 -19 40 -18 61 6 17 18 17 21
1 45 -9 14 -18 25 -19 25 -2 0 -16 -14 -33 -31z"/>
<path d="M1517 976 c-43 -64 -45 -72 -30 -83 40 -30 101 -7 123 46 16 38 7 74
-23 94 -22 14 -24 13 -70 -57z"/>
<path d="M2276 718 c-12 -47 -8 -60 20 -56 35 4 53 31 38 56 -17 27 -50 27
-58 0z"/>
</g>
</svg>
