<?xml version="1.0" standalone="no"?>
<!DOCTYPE svg PUBLIC "-//W3C//DTD SVG 20010904//EN"
 "http://www.w3.org/TR/2001/REC-SVG-20010904/DTD/svg10.dtd">
<svg version="1.0" xmlns="http://www.w3.org/2000/svg"
 width="500.000000pt" height="500.000000pt" viewBox="0 0 500.000000 500.000000"
 preserveAspectRatio="xMidYMid meet">

<g transform="translate(0.000000,500.000000) scale(0.100000,-0.100000)"
fill="#000000" stroke="none">
<path d="M2272 4414 c-582 -71 -1097 -432 -1355 -950 -128 -255 -188 -515
-185 -796 l1 -153 8 160 c4 88 14 198 23 245 129 700 660 1229 1361 1356 153
28 424 25 575 -5 119 -23 347 -94 365 -113 7 -8 4 -9 -10 -4 -11 4 -51 14 -90
21 -327 63 -568 -36 -718 -295 -14 -25 -40 -88 -58 -140 -27 -80 -33 -114 -37
-218 -10 -255 44 -449 270 -957 151 -338 199 -462 233 -598 23 -92 26 -124 23
-220 -3 -93 -8 -123 -30 -175 -72 -173 -211 -264 -408 -266 -85 -1 -106 3
-205 37 -431 149 -759 482 -893 907 -43 138 -62 263 -62 419 0 237 41 415 145
626 161 326 427 565 780 700 104 39 86 44 -58 14 -196 -41 -364 -111 -532
-224 -233 -156 -394 -342 -515 -598 -101 -213 -142 -398 -141 -641 0 -138 11
-240 37 -341 82 -326 245 -587 514 -820 25 -22 45 -44 45 -50 1 -5 7 -9 13 -7
7 1 32 -11 55 -26 247 -169 591 -264 898 -249 385 19 754 190 1013 468 79 86
101 123 41 70 -56 -49 -174 -125 -262 -170 -46 -22 -85 -41 -89 -41 -3 0 3 15
14 33 11 17 33 68 48 112 48 141 37 323 -33 555 -36 119 -123 340 -211 538
-28 61 -48 112 -43 112 18 0 100 -62 147 -111 28 -30 116 -131 196 -225 295
-344 458 -507 590 -587 35 -21 71 -36 81 -33 26 6 22 -4 -33 -83 -160 -232
-346 -399 -590 -529 -386 -206 -840 -251 -1265 -126 -153 45 -323 126 -477
228 -16 10 -28 16 -28 13 0 -8 163 -113 243 -155 178 -94 429 -170 632 -193
240 -26 526 7 756 87 134 46 329 147 449 232 116 82 305 267 389 382 313 426
419 978 286 1490 -135 522 -532 975 -1027 1174 -277 111 -594 155 -876 120z
m797 -449 c76 -106 127 -262 137 -425 14 -226 -67 -398 -256 -548 -94 -75
-112 -94 -148 -164 l-30 -56 -32 76 c-119 283 -170 474 -170 634 0 162 41 272
139 379 82 90 192 146 292 148 31 1 40 -5 68 -44z m698 -380 c130 -181 236
-439 279 -680 25 -137 25 -422 1 -555 -32 -172 -127 -452 -153 -451 -5 0 -21
70 -35 156 l-26 157 -145 146 c-221 225 -535 580 -521 592 4 4 33 25 63 47
167 122 284 274 334 433 40 127 41 179 10 355 -4 28 1 24 62 -40 37 -38 95
-110 131 -160z"/>
<path d="M1199 1237 c-77 -51 -87 -140 -23 -196 62 -55 150 -37 189 39 31 61
11 122 -53 158 -50 28 -70 28 -113 -1z m109 -43 c33 -23 30 -78 -7 -115 -35
-35 -66 -37 -98 -7 -27 25 -29 48 -8 88 26 50 71 64 113 34z"/>
<path d="M3738 1206 c-13 -9 -18 -27 -18 -60 0 -25 -2 -46 -5 -46 -3 0 -23 9
-45 20 -36 19 -39 19 -60 2 -21 -17 -20 -17 40 -41 l60 -24 0 -74 c0 -40 4
-73 8 -73 20 0 32 28 32 78 0 39 3 53 13 49 6 -3 31 -12 54 -22 37 -15 44 -15
63 -2 20 14 18 16 -45 43 l-65 28 0 68 c0 71 -3 76 -32 54z"/>
<path d="M1422 1021 c-29 -54 -52 -101 -52 -104 0 -4 9 -11 20 -17 17 -9 22
-5 40 30 18 36 22 39 44 29 24 -11 36 -44 36 -99 0 -19 7 -30 26 -39 l26 -11
-7 59 c-7 59 -7 60 21 63 15 2 36 15 47 30 31 41 11 76 -68 121 -35 20 -68 37
-72 37 -5 0 -32 -44 -61 -99z m122 22 c40 -18 52 -39 35 -59 -15 -18 -31 -18
-73 3 -34 16 -35 17 -20 45 17 33 14 32 58 11z"/>
<path d="M3506 1067 c-16 -12 -14 -20 36 -115 53 -101 61 -110 86 -93 10 6 1
32 -40 115 -29 58 -55 106 -58 106 -4 0 -14 -6 -24 -13z"/>
<path d="M3350 993 c-98 -40 -102 -43 -90 -63 7 -11 13 -12 35 -2 14 7 30 12
34 12 5 0 25 -40 46 -90 21 -49 40 -88 44 -86 3 1 14 6 23 9 16 6 14 14 -17
89 -19 45 -35 88 -35 94 0 6 14 17 30 24 28 12 39 33 22 44 -4 2 -46 -11 -92
-31z"/>
<path d="M1715 988 c-2 -7 -20 -55 -40 -106 -19 -52 -35 -97 -35 -102 0 -4 31
-17 68 -30 64 -20 71 -21 106 -6 27 11 42 27 56 58 38 83 18 127 -76 169 -73
33 -73 33 -79 17z m85 -63 c16 -9 32 -26 36 -39 8 -32 -20 -93 -46 -101 -24
-8 -90 2 -90 13 0 19 53 142 61 142 6 0 23 -7 39 -15z"/>
<path d="M3160 923 c0 -5 9 -37 20 -73 11 -36 20 -72 20 -80 0 -8 -33 18 -72
57 -63 61 -76 70 -95 62 -26 -10 -26 -10 -12 -64 29 -108 51 -175 57 -175 4 0
13 4 21 9 11 7 10 18 -3 67 -10 33 -20 68 -23 79 -3 12 23 -7 64 -48 61 -60
73 -67 96 -62 15 4 27 12 27 19 0 6 -12 57 -27 114 -25 92 -30 102 -50 102
-13 0 -23 -3 -23 -7z"/>
<path d="M1975 899 c-2 -8 -16 -60 -29 -117 -17 -74 -21 -105 -13 -107 7 -3
49 -13 95 -24 73 -16 84 -17 89 -4 8 20 -8 28 -78 43 -56 12 -58 14 -52 39 3
14 7 28 9 29 1 2 28 -2 59 -9 47 -10 58 -10 65 1 13 21 6 25 -55 39 -48 11
-55 16 -55 36 0 34 9 36 74 19 58 -15 76 -13 76 10 0 7 -32 20 -77 31 -43 10
-84 20 -90 22 -7 3 -15 -1 -18 -8z"/>
<path d="M2835 855 c-44 -8 -80 -14 -81 -14 -3 -5 33 -221 38 -227 4 -4 48 -1
98 6 79 11 90 15 90 33 0 18 -5 19 -52 13 -29 -4 -63 -9 -74 -12 -18 -5 -22 0
-26 25 -5 34 -3 35 75 46 30 4 47 11 47 20 0 22 -13 25 -71 16 -56 -9 -69 -4
-69 31 0 12 11 19 38 23 87 15 92 16 92 36 0 21 4 21 -105 4z"/>
<path d="M2212 738 c-9 -88 -9 -114 1 -120 25 -16 36 -7 43 37 6 41 9 45 33
45 23 0 31 -8 51 -50 18 -39 29 -50 47 -50 28 0 28 1 2 52 l-21 41 28 22 c32
25 37 76 12 102 -18 17 -82 32 -144 33 l-40 0 -12 -112z m150 56 c14 -9 9 -51
-6 -57 -8 -3 -31 -3 -50 0 -33 5 -36 8 -36 41 l0 35 42 -7 c22 -4 45 -9 50
-12z"/>
<path d="M2550 833 c-30 -12 -50 -37 -50 -62 0 -44 23 -63 91 -75 71 -13 74
-66 4 -66 -18 0 -38 7 -45 15 -13 16 -60 21 -60 6 0 -24 38 -53 76 -58 59 -8
109 11 124 47 22 52 -10 82 -113 104 -22 5 -28 12 -25 29 4 28 52 36 77 13 13
-12 25 -14 40 -8 22 8 22 8 4 31 -19 23 -90 38 -123 24z"/>
</g>
</svg>
