<?xml version="1.0" standalone="no"?>
<!DOCTYPE svg PUBLIC "-//W3C//DTD SVG 20010904//EN"
 "http://www.w3.org/TR/2001/REC-SVG-20010904/DTD/svg10.dtd">
<svg version="1.0" xmlns="http://www.w3.org/2000/svg"
 width="500.000000pt" height="500.000000pt" viewBox="0 0 500.000000 500.000000"
 preserveAspectRatio="xMidYMid meet">

<g transform="translate(0.000000,500.000000) scale(0.100000,-0.100000)"
fill="#000000" stroke="none">
<path d="M2375 4423 c-384 -23 -765 -182 -1062 -443 -209 -183 -394 -458 -481
-715 -72 -212 -100 -367 -99 -560 l0 -130 7 130 c10 173 32 293 85 450 49 146
91 237 166 357 335 540 963 849 1584 778 159 -19 380 -76 480 -125 l30 -15
-30 6 c-16 3 -61 12 -100 21 -91 19 -264 18 -337 -1 -283 -76 -468 -351 -468
-695 0 -239 64 -453 280 -931 201 -447 252 -605 252 -793 0 -228 -136 -401
-350 -446 -81 -17 -149 -13 -242 14 -447 130 -803 475 -944 914 -48 149 -67
275 -67 438 1 230 43 409 146 618 163 331 434 572 793 705 91 34 67 38 -66 10
-586 -124 -1020 -548 -1159 -1130 -37 -156 -43 -420 -14 -581 95 -530 459
-969 953 -1153 549 -204 1153 -71 1571 345 111 111 143 160 60 91 -27 -22 -75
-58 -108 -80 -59 -40 -213 -122 -228 -122 -4 0 6 26 21 58 39 77 50 113 62
206 25 201 -43 458 -238 901 -44 99 -78 181 -77 183 7 7 68 -31 107 -66 23
-20 109 -116 192 -212 239 -279 381 -433 479 -520 101 -90 196 -152 233 -152
13 0 24 -4 24 -8 0 -4 -22 -41 -50 -82 -304 -457 -869 -744 -1425 -722 -295
12 -583 97 -825 245 l-35 21 30 -26 c47 -40 270 -151 375 -186 279 -93 522
-119 795 -85 374 46 720 210 996 472 208 199 359 438 450 715 62 188 80 290
86 491 10 316 -38 545 -172 822 -173 357 -437 626 -791 805 -114 58 -340 134
-461 155 -108 19 -295 37 -347 33 -23 -2 -59 -4 -81 -5z m694 -458 c109 -151
166 -422 128 -602 -31 -145 -118 -277 -242 -368 -78 -57 -126 -110 -159 -177
l-24 -48 -32 76 c-128 308 -170 468 -170 650 0 82 5 116 25 175 63 188 239
336 401 338 37 1 43 -3 73 -44z m631 -290 c332 -405 451 -976 309 -1490 -36
-129 -110 -311 -120 -293 -3 7 -17 81 -29 163 l-24 150 -146 150 c-167 171
-498 539 -523 581 -4 7 18 29 53 53 147 103 280 267 332 407 50 134 55 240 21
394 -5 24 -4 23 32 -10 20 -19 63 -66 95 -105z"/>
<path d="M1200 1238 c-78 -53 -88 -141 -24 -197 62 -55 150 -37 189 39 33 63
9 127 -58 159 -55 26 -66 26 -107 -1z m108 -44 c33 -23 30 -78 -7 -115 -34
-34 -69 -37 -99 -9 -31 29 -28 71 7 109 32 34 64 39 99 15z"/>
<path d="M1460 1246 c0 -2 7 -7 16 -10 8 -3 12 -2 9 4 -6 10 -25 14 -25 6z"/>
<path d="M3738 1206 c-13 -9 -18 -27 -18 -60 0 -25 -2 -46 -5 -46 -3 0 -23 9
-45 20 -36 19 -39 19 -60 2 -21 -17 -20 -17 40 -41 l60 -24 0 -74 c0 -40 4
-73 8 -73 20 0 32 28 32 77 0 29 3 53 6 53 3 0 28 -10 55 -22 46 -19 52 -20
66 -5 15 15 11 19 -50 46 l-66 30 -3 65 c-3 59 -4 63 -20 52z"/>
<path d="M1423 1021 c-29 -54 -53 -101 -53 -104 0 -4 9 -11 20 -17 17 -9 22
-5 40 30 19 36 22 39 44 29 27 -12 36 -35 36 -90 0 -29 5 -38 26 -48 l26 -11
-7 59 c-7 59 -7 60 21 63 15 2 36 15 47 30 31 42 11 76 -70 121 -36 21 -68 37
-72 37 -3 0 -30 -45 -58 -99z m126 22 c36 -21 46 -40 30 -59 -15 -18 -31 -18
-73 3 -34 16 -35 17 -20 45 17 33 22 34 63 11z"/>
<path d="M3507 1067 c-16 -11 -13 -20 35 -114 52 -102 61 -111 86 -94 10 6 1
32 -40 115 -29 58 -55 106 -58 106 -4 0 -14 -6 -23 -13z"/>
<path d="M3350 993 c-98 -40 -102 -43 -90 -63 7 -11 13 -12 35 -2 14 7 30 12
34 12 5 0 25 -40 46 -90 21 -49 40 -88 44 -86 3 1 14 6 23 9 16 6 14 14 -17
89 -19 45 -35 88 -35 94 0 6 14 17 30 24 32 13 34 18 22 37 -5 8 -31 2 -92
-24z"/>
<path d="M1715 987 c-3 -7 -20 -54 -40 -105 -19 -52 -35 -97 -35 -101 0 -5 29
-18 64 -29 80 -26 127 -17 156 31 58 95 27 157 -102 203 -30 10 -40 11 -43 1z
m108 -79 c9 -11 17 -27 17 -34 0 -31 -29 -82 -50 -89 -24 -8 -90 2 -90 13 0 4
12 37 26 75 25 65 28 68 53 62 14 -3 34 -15 44 -27z"/>
<path d="M3168 924 c-6 -5 18 -103 38 -159 4 -11 -27 13 -67 53 -71 68 -108
87 -124 62 -3 -5 3 -45 15 -87 38 -139 39 -141 60 -136 24 6 24 3 0 88 -11 38
-20 72 -20 75 0 2 31 -26 68 -63 60 -60 72 -67 95 -62 15 4 27 12 27 19 0 6
-12 57 -27 113 -21 76 -32 103 -44 103 -9 0 -18 -3 -21 -6z"/>
<path d="M1975 899 c-2 -8 -15 -60 -29 -117 -16 -72 -20 -105 -12 -107 6 -2
48 -13 93 -23 72 -17 83 -17 88 -4 7 20 -6 27 -76 42 -56 12 -58 14 -52 39 3
14 7 28 9 29 1 2 28 -2 60 -8 46 -10 58 -9 65 1 12 20 4 25 -59 38 -55 11 -59
13 -54 36 2 14 8 27 11 30 4 2 34 -3 66 -11 48 -13 59 -13 66 -2 14 22 12 24
-68 43 -43 10 -84 20 -90 22 -7 3 -15 -1 -18 -8z"/>
<path d="M2870 859 c-30 -5 -69 -11 -86 -14 l-31 -5 17 -110 c9 -60 19 -112
22 -116 4 -3 47 0 97 6 80 11 91 15 91 33 0 17 -5 19 -47 13 -27 -4 -60 -9
-74 -12 -23 -4 -27 -1 -31 25 -5 34 -3 35 75 46 30 4 47 11 47 20 0 22 -13 25
-71 16 -56 -9 -69 -4 -69 31 0 12 11 19 38 23 87 15 92 16 92 36 0 10 -3 18
-7 18 -5 -1 -33 -5 -63 -10z"/>
<path d="M2213 739 c-9 -86 -8 -116 0 -121 25 -16 35 -7 41 37 7 41 10 45 35
45 23 0 31 -8 51 -50 18 -39 29 -50 47 -50 28 0 28 1 2 52 l-21 41 25 21 c31
27 39 50 27 80 -13 34 -35 44 -121 52 l-75 6 -11 -113z m149 55 c13 -8 9 -51
-6 -57 -7 -3 -31 -3 -53 0 -38 5 -39 6 -35 40 4 35 5 35 45 29 22 -4 44 -9 49
-12z"/>
<path d="M2555 833 c-33 -8 -55 -34 -55 -63 0 -35 24 -56 82 -70 26 -7 53 -18
59 -26 17 -21 -7 -44 -46 -44 -18 0 -38 7 -45 15 -14 17 -60 21 -60 5 0 -5 9
-19 20 -30 70 -70 228 -4 176 75 -14 22 -43 35 -109 49 -22 5 -28 12 -25 29 4
28 52 36 77 13 13 -12 25 -14 40 -8 22 8 22 9 4 30 -19 22 -80 35 -118 25z"/>
</g>
</svg>
